# xmcd
#
# Track frame offsets:
#	150
#	14677
#	26087
#	44639
#	61067
#	71062
#	88964
#	108314
#	123092
#	142442
#	154002
#
# Disc length: 2327 seconds
#
# Revision: 0
# Processed by: cddbd v1.5.2PL0 Copyright (c) Steve Scherf et al.
# Submitted via: EZCDAudioConverter 3.1.7.1
#
DISCID=a109150b
DTITLE=הגבעתרון - רחוק רחוק
DYEAR=2014
DGENRE=
TTITLE0=עד מי  הפלג
TTITLE1=מול גשר הנהר
TTITLE2=רחוק רחוק
TTITLE3=במדרון היורד מגבע
TTITLE4=שמלתך השזורה
TTITLE5=מחרוזת קלינקה
TTITLE6=תוגת הפרידה
TTITLE7=נעורי זהב
TTITLE8=השיירה
TTITLE9=עונות
TTITLE10=שולי האור
EXTD=
EXTT0=
EXTT1=
EXTT2=
EXTT3=
EXTT4=
EXTT5=
EXTT6=
EXTT7=
EXTT8=
EXTT9=
EXTT10=
PLAYORDER=
